<svg viewBox="20 20 160 160">
	<path fill="#ff0000" d="M 98.5 23.8 L 95.1 24.0 L 93.2 24.2 L 89.9 24.9 L 86.9 25.7 L 84.3 26.6 L 81.3 27.9 L 78.4 29.4 L 76.9 30.3 L 75.5 31.2 L 74.0 32.3 L 72.7 33.3 L 71.6 34.2 L 70.3 35.4 L 69.1 36.5 L 67.8 37.8 L 67.1 38.6 L 66.0 39.9 L 64.6 41.7 L 63.9 42.7 L 62.9 44.2 L 62.0 45.7 L 61.1 47.3 L 59.8 50.0 L 59.3 51.3 L 58.8 52.5 L 57.8 55.5 L 57.0 58.8 L 56.6 61.4 L 56.2 64.7 L 56.1 110.5 L 56.1 157.7 L 56.2 164.0 L 56.7 166.3 L 57.3 167.9 L 58.0 169.3 L 58.9 170.6 L 60.0 171.9 L 61.1 173.0 L 62.4 174.0 L 63.9 174.8 L 66.3 175.6 L 68.1 175.9 L 71.4 176.1 L 75.7 176.2 L 127.6 176.2 L 130.8 176.0 L 132.7 175.8 L 134.4 175.4 L 136.2 174.7 L 138.0 173.7 L 139.6 172.4 L 140.5 171.5 L 141.5 170.2 L 142.4 168.6 L 143.1 167.1 L 143.6 165.5 L 143.8 164.3 L 143.9 153.4 L 143.9 103.7 L 143.7 101.8 L 143.1 99.5 L 142.3 97.5 L 141.5 96.0 L 140.6 94.9 L 139.7 93.9 L 138.6 92.8 L 137.3 91.8 L 135.7 90.8 L 134.0 90.0 L 132.2 89.4 L 129.7 89.0 L 105.7 89.0 L 99.2 88.9 L 95.6 88.5 L 93.3 87.9 L 91.4 87.2 L 89.5 86.3 L 87.8 85.3 L 86.3 84.2 L 85.3 83.3 L 85.0 83.0 L 84.8 83.0 L 84.6 82.6 L 83.7 81.7 L 82.8 80.6 L 81.8 79.3 L 80.9 77.8 L 80.0 76.1 L 79.1 73.8 L 78.5 71.7 L 78.1 69.7 L 77.9 67.6 L 77.9 65.9 L 78.1 63.8 L 78.7 61.1 L 79.6 58.4 L 80.4 56.7 L 81.5 54.8 L 82.2 53.8 L 83.1 52.7 L 84.2 51.5 L 85.3 50.4 L 86.7 49.3 L 88.3 48.2 L 89.8 47.3 L 91.2 46.6 L 94.2 45.6 L 96.4 45.1 L 98.7 44.8 L 100.6 44.8 L 103.0 45.0 L 105.6 45.5 L 108.0 46.3 L 110.0 47.2 L 111.7 48.1 L 113.1 49.1 L 114.4 50.1 L 115.7 51.3 L 116.1 51.5 L 116.3 51.9 L 117.3 53.0 L 118.4 54.5 L 119.3 56.0 L 120.1 57.6 L 120.8 59.4 L 121.5 61.3 L 122.3 62.6 L 123.2 63.6 L 124.4 64.8 L 125.7 65.7 L 127.7 66.4 L 129.3 66.8 L 131.3 66.8 L 133.8 66.4 L 135.7 65.9 L 137.4 65.1 L 138.7 64.1 L 139.9 62.9 L 140.6 61.9 L 141.4 60.4 L 141.8 59.3 L 142.1 57.9 L 142.2 57.0 L 142.2 56.1 L 142.0 54.8 L 141.1 52.1 L 140.1 49.7 L 138.7 46.7 L 137.6 44.8 L 136.1 42.5 L 134.8 40.8 L 133.6 39.4 L 132.7 38.3 L 129.8 35.4 L 129.0 34.7 L 127.6 33.5 L 125.6 32.0 L 123.2 30.4 L 121.2 29.2 L 118.5 27.8 L 116.8 27.1 L 115.6 26.6 L 113.0 25.8 L 110.1 25.0 L 106.6 24.3 L 103.5 24.0 L 101.2 23.9 L 98.5 23.8 Z"/>
</svg>
